<?xml version="1.0" standalone="no"?>
<!DOCTYPE svg PUBLIC "-//W3C//DTD SVG 20010904//EN"
 "http://www.w3.org/TR/2001/REC-SVG-20010904/DTD/svg10.dtd">
<svg version="1.0" xmlns="http://www.w3.org/2000/svg"
 width="700.000000pt" height="700.000000pt" viewBox="0 0 700.000000 700.000000"
 preserveAspectRatio="xMidYMid meet">
<metadata>
Created by potrace 1.11, written by Peter Selinger 2001-2013
</metadata>
<g transform="translate(0.000000,700.000000) scale(0.100000,-0.100000)"
fill="#000000" stroke="none">
<path d="M3305 6944 c-1101 -73 -2066 -629 -2670 -1539 -295 -444 -469 -916
-547 -1485 -21 -150 -17 -692 5 -849 88 -614 297 -1127 653 -1608 503 -678
1256 -1154 2084 -1317 254 -50 366 -60 670 -60 304 0 416 10 670 60 1032 203
1916 875 2396 1822 177 349 287 710 346 1142 18 130 17 670 0 810 -72 560
-268 1081 -578 1533 -562 820 -1450 1357 -2434 1472 -134 15 -480 26 -595 19z
m630 -118 c533 -77 978 -244 1410 -531 1079 -717 1646 -1985 1459 -3265 -70
-478 -251 -952 -519 -1355 -659 -993 -1777 -1558 -2958 -1494 -715 39 -1360
284 -1922 732 -129 103 -410 385 -506 507 -412 525 -640 1073 -721 1735 -19
161 -16 595 5 760 50 380 150 718 311 1050 375 775 1023 1368 1834 1676 271
103 558 167 907 203 96 10 595 -3 700 -18z"/>
<path d="M640 3595 l0 -1247 483 5 c517 5 582 10 792 63 412 104 657 335 764
723 53 191 69 523 36 744 -72 485 -322 768 -789 892 -199 53 -255 58 -788 62
l-498 5 0 -1247z m1035 941 c380 -70 585 -259 666 -614 13 -57 22 -143 26
-252 9 -268 -20 -447 -103 -619 -37 -75 -60 -108 -122 -170 -92 -91 -174 -141
-301 -182 -152 -49 -252 -59 -573 -59 l-288 0 0 961 0 961 303 -5 c220 -3 326
-9 392 -21z"/>
<path d="M4440 3595 l0 -1245 170 0 170 0 0 525 0 525 223 0 c244 0 319 -10
407 -55 123 -62 187 -159 422 -632 l179 -363 185 0 c101 0 184 2 184 5 0 19
-415 819 -465 895 -74 115 -151 196 -225 238 -45 26 -51 32 -35 38 188 66 320
209 372 404 24 91 24 318 -1 415 -71 279 -269 436 -611 485 -38 5 -274 10
-522 10 l-453 0 0 -1245z m873 955 c272 -40 401 -218 366 -505 -23 -182 -125
-298 -300 -340 -49 -11 -128 -15 -331 -15 l-268 0 0 435 0 435 233 0 c127 0
262 -5 300 -10z"/>
<path d="M3307 3869 c-54 -13 -132 -55 -177 -95 -116 -105 -133 -303 -40 -452
l29 -47 -74 -70 c-130 -124 -185 -239 -185 -389 0 -145 44 -249 146 -347 106
-100 231 -144 409 -143 161 1 282 40 408 132 l49 35 72 -72 71 -71 128 0 c70
0 127 3 127 8 0 4 -61 68 -135 142 -74 74 -135 138 -135 141 0 4 16 31 36 60
77 115 147 290 160 402 l7 57 -96 0 -96 0 -6 -47 c-16 -122 -72 -284 -117
-340 -6 -8 -76 57 -237 220 -404 412 -421 433 -421 527 0 121 88 194 234 193
76 -1 176 -28 258 -69 26 -13 50 -24 53 -24 3 0 5 42 5 94 l0 95 -57 21 c-123
46 -311 64 -416 39z m187 -984 c293 -302 279 -274 166 -334 -119 -64 -265 -75
-385 -30 -68 25 -148 97 -183 163 -23 44 -27 63 -27 141 0 80 3 97 31 155 27
58 115 170 132 170 4 0 123 -120 266 -265z"/>
</g>
</svg>
